<?xml version="1.0" encoding="utf-8"?>
<!-- Generator: Adobe Illustrator 27.1.1, SVG Export Plug-In . SVG Version: 6.00 Build 0)  -->
<svg version="1.1" id="Livello_1" xmlns="http://www.w3.org/2000/svg" xmlns:xlink="http://www.w3.org/1999/xlink" x="0px" y="0px"
	 viewBox="0 0 700 700" style="enable-background:new 0 0 700 700;" xml:space="preserve">
<g>
	<path d="M350,106.4c-95.7,0-173.6,77.9-173.6,173.6S254.3,453.6,350,453.6S523.6,375.7,523.6,280S445.7,106.4,350,106.4L350,106.4z
		 M187.6,280c0-89.6,72.9-162.4,162.4-162.4c89.6,0,162.4,72.9,162.4,162.4c0,41.4-15.6,79.2-41.2,107.9
		c-20.6-30.6-51.4-51.5-86.5-59.5c29-13.2,49.3-42.5,49.3-76.4c0-46.3-37.7-84-84-84s-84,37.7-84,84c0,34.7,21.2,64.6,51.3,77.4
		c-34.9,9-65.6,31.1-85.2,62.1C204.5,362.4,187.6,323.1,187.6,280L187.6,280z M350,324.8c-40.1,0-72.8-32.7-72.8-72.8
		s32.7-72.8,72.8-72.8s72.8,32.7,72.8,72.8S390.1,324.8,350,324.8z M240.2,399.5C264,360.3,306.9,336,352.8,336
		c45.2,0,86.1,22.4,110.5,60.2C434,424.8,394,442.4,350,442.4C307.7,442.4,269.1,426.1,240.2,399.5L240.2,399.5z"/>
</g>
</svg>
